<?xml version="1.0" encoding="UTF-8"?>
<svg id="Layer_1" data-name="Layer 1" xmlns="http://www.w3.org/2000/svg" viewBox="0 0 1000 1000">
  <defs>
    <style>
      .cls-1 {
        fill: #88c4d8;
      }

      .cls-2 {
        fill: #118ab2;
      }
    </style>
  </defs>
  <g>
    <g>
      <path class="cls-2" d="m732.91,727.4c-12.51,12.35-26.05,23.7-40.45,33.96-36.38,26.08-78.28,45.11-123.42,54.98-23.07,5.1-46.93,7.71-71.39,7.71-9.83,0-19.56-.43-29.19-1.36-48.19-4.44-93.57-19.69-133.65-43.33-29.23-17.14-55.64-38.82-78.28-63.91-34.49-38.2-60.24-84.47-73.81-135.34-7.15-26.64-10.92-54.51-10.92-83.24,0-5.79.17-11.58.5-17.31,3.61-62.75,26.51-121.34,62.92-169.89,9.66-12.94,20.29-25.19,31.81-36.61,2.52-2.55,5.06-5,7.65-7.41l-14.13-14.23c-2.68,2.61-5.3,5.26-7.84,7.94-11.12,11.58-21.45,23.93-30.88,37.04-37.37,51.77-60.9,114.69-65.17,183.3-.5,7.45-.76,14.96-.76,22.61-.03,26.81,3.01,52.86,8.77,77.91,13.07,56.63,40.18,107.8,77.52,149.8,22.37,25.22,48.49,47.1,77.42,64.74,44.05,26.98,94.69,44.15,148.98,48.82,9.76.83,19.63,1.22,29.59,1.22,24.43,0,48.19-2.35,71.03-6.95,51.47-10.26,98.43-31.61,138.42-61.53,14.07-10.53,27.27-22.11,39.49-34.65l-14.17-14.27Z"/>
      <path class="cls-1" d="m844.12,499.35c0,26.61-2.85,52.36-8.27,77.09-10.36,47.36-30.22,90.82-57.52,128.26-8.24,11.29-17.11,22.04-26.64,32.17-1.52,1.62-3.05,3.21-4.6,4.8l-14.17-14.27c1.46-1.42,2.91-2.88,4.34-4.34,9.83-10.03,19-20.65,27.44-31.84,25.75-33.96,44.78-72.85,55.18-114.72,5.96-23.9,9.04-48.75,8.97-74.17-.03-9-.43-17.94-1.23-26.78-4.5-52.89-21.84-102.27-48.89-145.14-18.1-28.76-40.55-54.51-66.4-76.36-41.51-35.15-91.75-60.27-146.86-71.49-21.12-4.3-42.93-6.55-65.24-6.55-12.05,0-23.96.63-35.71,1.99-58.02,6.32-111.97,28.13-157.32,60.9-11.42,8.24-22.31,17.21-32.54,26.74l-14.13-14.23c10-9.73,20.59-18.87,31.67-27.34,48.75-37.17,107.77-61.23,172.18-67.32,10.79-1.03,21.75-1.56,32.83-1.56,23.4,0,46.17,2.18,68.12,6.35,61.76,11.58,117.07,38.79,161.82,77.52,25.62,22.18,47.79,48.12,65.7,77.09,28.76,46.44,46.64,100.59,50.47,159.34.53,7.91.79,15.82.79,23.86Z"/>
      <path class="cls-2" d="m747.67,674.43l-.79-.79-40.61-40.18-.46-.43c-13.97-13.6-27.77-27.04-41.07-40.61,16.52-13.31,39.16-27.54,54.78-45.11,41.34-46.54,52.13-100.62,25.78-157.98-26.31-57.26-72.22-89.56-136.23-91.42-47.96-1.39-95.95-.3-143.94-.23-4.83,0-9.66.5-15.72.83v307.95c-23.07-1.12-45.11-.2-66.36-3.84-24.66-4.2-38.56-26.02-37.86-52.82.66-26.05,16.45-46.37,41.14-50.57,12.05-2.09,24.39-2.45,37.53-3.21h.03c2.61-.17,5.23-.33,7.91-.53,0-40.45.2-92.38-.26-133.65l-6.39-6.29-102.24-101.08c103.8-79.8,274.62-83.18,388.64,26.28,117.37,112.67,113.66,289.84,36.14,393.7Z"/>
      <path class="cls-1" d="m677.51,746.58c-119.19,87.15-288.98,73.11-392.38-30.65-113.46-113.86-110.09-285.57-33.53-390.1l42.2,41.67.43.4,1.72,1.69,40.88,40.41c-3.11,1.72-9.1,5.66-14.1,8.44-62.32,34.52-93.07,102.8-75.99,168.93,17.54,68.08,78.44,115.05,149.31,115.02,50.18,0,100.32-.17,150.5-.3.99,0,1.99-.69,4.8-1.75v-305.23c20.98,0,40.31-1.69,59.21.4,27.04,2.98,45.05,25.42,45.21,52.59.2,28.07-18.2,50.21-45.91,53.85-11.09,1.46-22.34,1.49-34.69,1.89-2.09.1-4.24.17-6.39.27,0,41.17-.23,93.54.26,135.34l6.22,6.09,100.78,99.59,1.46,1.46Z"/>
    </g>
    <path class="cls-2" d="m182.72,580.1l-18.07.1-91.88.53c-4.53-25.22-6.92-51.24-6.88-77.81,0-7.61.2-15.16.6-22.67l90.16-.56,15.66-.1c-.33,5.73-.5,11.52-.5,17.31,0,28.7,3.77,56.6,10.92,83.21Z"/>
    <path class="cls-1" d="m307.2,238.9c-14.3,10.33-27.77,21.78-40.18,34.16-1.46,1.42-2.88,2.85-4.27,4.34-2.55,2.58-5.03,5.23-7.45,7.91-1.42,1.56-2.81,3.14-4.2,4.73-1.39,1.59-2.75,3.18-4.1,4.8-2.71,3.21-5.36,6.49-7.94,9.8-1.29,1.69-2.58,3.34-3.84,5.03l-13.4-13.27-16.58-16.38-48.19-47.63c20.65-26.81,44.29-51.07,70.43-72.32l64.74,64.01,14.99,14.83Z"/>
    <path class="cls-2" d="m334.81,779.38l-15.23,15.39-64.91,65.63c-27.9-18.97-53.45-41.14-76.13-66l63.61-64.41,14.36-14.53c22.64,25.09,49.05,46.74,78.28,63.91Z"/>
    <path class="cls-1" d="m500.23,176c-12.05,0-23.96.66-35.71,1.99l-.13-21.25-.53-90.56c10.76-.79,21.68-1.19,32.67-1.19,23.3,0,46.11,1.72,68.31,5.03l.5,91.52.13,21.02c-21.12-4.3-42.93-6.55-65.24-6.55Z"/>
    <path class="cls-2" d="m569.18,837.87l.5,91.52c-23.37,3.71-47.43,5.63-72.02,5.63-9.6,0-19.1-.33-28.53-.93l-.56-90.52-.1-20.89c9.63.93,19.36,1.39,29.19,1.39,24.46,0,48.32-2.65,71.39-7.74l.13,21.55Z"/>
    <path class="cls-2" d="m843.16,768.84c-20.65,26.58-44.38,50.57-70.66,71.56l-64.91-64.08-15.13-14.96c16.05-11.45,31.05-24.29,44.78-38.29.99-1.03,1.99-2.05,2.95-3.08.86-.86,1.72-1.79,2.55-2.68,1.09-1.16,2.18-2.35,3.24-3.54.93-.99,1.85-2.02,2.75-3.04,5.59-6.29,10.89-12.81,15.95-19.49l13.64,13.47,16.05,15.85,48.79,48.29Z"/>
    <path class="cls-1" d="m712.33,254.05l14.83-14.96,63.71-64.51c25.25,22.47,47.76,47.86,67.02,75.76l-65.04,65.8-14.13,14.27c-18.1-28.73-40.55-54.51-66.4-76.36Z"/>
    <path class="cls-1" d="m934.12,499.21c0,26.25-2.18,51.83-6.42,76.69l-91.85.53-15.99.1c5.96-23.9,9.04-48.75,8.97-74.21-.03-9-.43-17.94-1.22-26.74l15.72-.07,90.16-.56c.43,8.04.63,16.12.63,24.26Z"/>
  </g>
  <path class="cls-1" d="m867.99,500.02c0,82.65-27.41,159.04-73.61,220.53l-16.05-15.85-13.64-13.47c25.75-33.96,44.78-72.85,55.18-114.72,5.96-23.9,9.04-48.75,8.97-74.17-.03-9-.43-17.94-1.23-26.78-4.5-52.89-21.84-102.27-48.89-145.14-18.1-28.76-40.55-54.51-66.4-76.36-41.51-35.15-91.75-60.27-146.86-71.49-21.12-4.3-42.93-6.55-65.24-6.55-12.05,0-23.96.63-35.71,1.99-58.02,6.32-111.97,28.13-157.32,60.9-11.42,8.24-22.31,17.21-32.54,26.74-2.58,2.42-5.13,4.87-7.65,7.41l-14.33-13.7-16.42-15.72c66.89-68.81,160.43-111.61,263.73-111.61,202.89,0,367.99,165.06,367.99,367.99Z"/>
  <path class="cls-2" d="m767.7,752.19c-67.12,71.26-162.31,115.78-267.7,115.78-202.89,0-367.99-165.06-367.99-367.95,0-82.45,27.24-158.64,73.21-220l16.58,16.38,13.4,13.27c-36.41,48.56-59.31,107.14-62.92,169.89-.33,5.73-.5,11.52-.5,17.31,0,28.73,3.77,56.6,10.92,83.24,13.57,50.87,39.32,97.14,73.81,135.34,22.64,25.09,49.05,46.77,78.28,63.91,40.08,23.63,85.46,38.89,133.65,43.33,9.63.93,19.36,1.36,29.19,1.36,24.46,0,48.32-2.61,71.39-7.71,45.15-9.86,87.05-28.89,123.42-54.98,14.4-10.26,27.94-21.61,40.45-33.96,1.46-1.42,2.91-2.88,4.34-4.34l14.43,13.8,16.02,15.32Z"/>
</svg>