<?xml version="1.0" encoding="UTF-8"?>
<svg version="1.1" xmlns="http://www.w3.org/2000/svg" width="315" height="443">
<path d="M0 0 C103.95 0 207.9 0 315 0 C315 146.19 315 292.38 315 443 C211.05 443 107.1 443 0 443 C0 296.81 0 150.62 0 0 Z " fill="#FCFDFE" transform="translate(0,0)"/>
<path d="M0 0 C35.97 0 71.94 0 109 0 C109 25.74 109 51.48 109 78 C133.75 78 158.5 78 184 78 C184 96.81 184 115.62 184 135 C203.47 135 222.94 135 243 135 C243 195.06 243 255.12 243 317 C228.15 317 213.3 317 198 317 C196.35 312.05 194.7 307.1 193 302 C185.72805606 286.62975485 174.82622494 276.04817134 158.90405273 269.93017578 C148.98730599 266.58807413 138.34670024 266.5878807 128 266 C128 255.77 128 245.54 128 235 C127.01 235 126.02 235 125 235 C125 234.34 125 233.68 125 233 C124.31164062 232.88527344 123.62328125 232.77054688 122.9140625 232.65234375 C119.5863599 231.90740228 116.55435719 230.79404411 113.375 229.5625 C112.24835938 229.13066406 111.12171875 228.69882812 109.9609375 228.25390625 C107 227 107 227 104 225 C104.613099 218.36977225 106.92153255 213.07378213 109.6484375 207.05273438 C109.96296875 206.33021484 110.2775 205.60769531 110.6015625 204.86328125 C111.03976318 203.89322144 111.03976318 203.89322144 111.48681641 202.90356445 C112.16237999 200.39767995 112.03230315 199.40140178 111 197 C109.33823505 195.00036658 107.68346315 193.16792747 105.86328125 191.32421875 C105.34622116 190.79480179 104.82916107 190.26538483 104.2964325 189.71992493 C103.20177839 188.6057328 102.10293958 187.49563866 101.00024414 186.3894043 C99.3179269 184.69297243 97.66408437 182.97173631 96.00976562 181.24804688 C94.94175276 180.16763866 93.87214227 179.08880693 92.80078125 178.01171875 C92.30991531 177.49413498 91.81904938 176.97655121 91.31330872 176.44328308 C89.72605546 174.81089093 89.72605546 174.81089093 87 173 C83.00675425 173.1651937 79.729606 174.34159101 76.0625 175.875 C75.20398438 176.22691406 74.34546875 176.57882813 73.4609375 176.94140625 C71.95448405 177.58942035 70.4568079 178.25901245 68.9765625 178.96484375 C65.17643911 180.76533889 63.00206741 181.42521955 59 180 C57.59375 177.91796875 57.59375 177.91796875 56.5 175.1875 C56.1390625 174.31480469 55.778125 173.44210938 55.40625 172.54296875 C54.9421875 171.37378906 54.478125 170.20460937 54 169 C52.35 165.04 50.7 161.08 49 157 C24.745 156.505 24.745 156.505 0 156 C0 104.52 0 53.04 0 0 Z " fill="#37A3CE" transform="translate(57,58)"/>
<path d="M0 0 C7.59 0 15.18 0 23 0 C26 6 26 6 26.9375 9.375 C29.0320803 16.89427195 29.0320803 16.89427195 34.07421875 22.640625 C37.87351898 24.57227535 40.94677423 25.51468014 45.18945312 24.45117188 C48.44682212 23.33119828 51.58963295 22.04973152 54.71728516 20.60717773 C60.31324936 18.03084209 60.31324936 18.03084209 63.609375 17.8828125 C67.35030734 19.63102598 69.98166165 22.28455986 72.875 25.1875 C73.78378906 26.03538086 73.78378906 26.03538086 74.7109375 26.90039062 C78.97705212 31.13257025 78.97705212 31.13257025 79.078125 34.953125 C77.56473562 39.230095 75.85182147 43.38527347 73.99609375 47.52148438 C72.30993883 51.48677215 71.56287749 53.9022588 73 58 C73.44279297 59.73443359 73.44279297 59.73443359 73.89453125 61.50390625 C75.85340242 65.89677905 79.46554943 67.07117829 83.72851562 68.81445312 C85.19321289 69.37036133 85.19321289 69.37036133 86.6875 69.9375 C88.16959961 70.53401367 88.16959961 70.53401367 89.68164062 71.14257812 C92.1123291 72.11720201 94.55509261 73.06161518 97 74 C97 81.26 97 88.52 97 96 C94.8653125 97.0828125 94.8653125 97.0828125 92.6875 98.1875 C91.78128906 98.65027344 90.87507812 99.11304688 89.94140625 99.58984375 C87 101 87 101 84.02734375 102.12890625 C78.9684122 104.08302921 75.66852668 105.46279271 73.25 110.5 C70.8352326 116.73449037 73.60993762 121.70042694 76.125 127.5 C76.56005859 128.47646484 76.56005859 128.47646484 77.00390625 129.47265625 C78.15350793 132.19539707 78.9881118 134.57070373 79.0703125 137.5390625 C77.40330982 141.37195187 74.69497942 143.96224136 71.75 146.875 C71.17636719 147.48085938 70.60273438 148.08671875 70.01171875 148.7109375 C65.75636101 152.97598854 65.75636101 152.97598854 62.5390625 153.078125 C61.28222656 152.54445313 61.28222656 152.54445313 60 152 C58.83726562 151.52304687 57.67453125 151.04609375 56.4765625 150.5546875 C54.54355782 149.71890064 52.6183359 148.87195239 50.703125 147.99609375 C44.5700048 145.38013023 40.58780559 146.34339261 34.3359375 147.9296875 C29.44498159 150.96505826 28.44847483 154.83175526 26.625 160.125 C25.95189238 161.96144079 25.27748387 163.79740547 24.6015625 165.6328125 C24.17351318 166.85315186 24.17351318 166.85315186 23.73681641 168.09814453 C23 170 23 170 22 171 C20.36527118 171.08700342 18.72685945 171.10701063 17.08984375 171.09765625 C16.10048828 171.09443359 15.11113281 171.09121094 14.09179688 171.08789062 C13.05087891 171.07951172 12.00996094 171.07113281 10.9375 171.0625 C9.89271484 171.05798828 8.84792969 171.05347656 7.77148438 171.04882812 C5.1809334 171.03699913 2.59049441 171.02051689 0 171 C-0.22550537 170.38479492 -0.45101074 169.76958984 -0.68334961 169.13574219 C-1.73475221 166.32670383 -2.83524489 163.53945489 -3.9375 160.75 C-4.46827148 159.29787109 -4.46827148 159.29787109 -5.00976562 157.81640625 C-6.98315017 152.92511123 -8.52500406 149.66012058 -13.37890625 147.265625 C-21.21219516 144.58781989 -27.58934044 147.84810666 -34.65820312 151.09179688 C-39.39906038 153.13601973 -39.39906038 153.13601973 -42.10546875 152.5234375 C-44.80966217 150.34893145 -47.22916559 147.93903299 -49.625 145.4375 C-52.96402902 141.77285984 -52.96402902 141.77285984 -57 139 C-56.3295711 133.42168771 -54.32059188 128.70104058 -51.99609375 123.65429688 C-50.00528659 119.02019312 -49.77850354 115.88005623 -51 111 C-51.66 110.01 -52.32 109.02 -53 108 C-53 107.01 -53 106.02 -53 105 C-54.8253125 104.443125 -54.8253125 104.443125 -56.6875 103.875 C-63.03229244 101.77696161 -68.96698436 98.85774425 -75 96 C-75 88.74 -75 81.48 -75 74 C-66 70 -66 70 -62 70 C-62 69.34 -62 68.68 -62 68 C-61.38511719 67.87625 -60.77023438 67.7525 -60.13671875 67.625 C-55.28772023 66.47306557 -55.28772023 66.47306557 -51.734375 63.23046875 C-49.66915571 57.9358134 -49.14423027 53.15643504 -51.27734375 47.78125 C-51.82519531 46.6984375 -52.37304688 45.615625 -52.9375 44.5 C-57.13308859 36.16833471 -57.13308859 36.16833471 -57 32 C-55.20136501 29.13540641 -52.92502087 26.90264513 -50.5 24.5625 C-49.88640625 23.91345703 -49.2728125 23.26441406 -48.640625 22.59570312 C-45.50206175 19.48681116 -44.02004084 18.03294119 -39.4921875 17.88671875 C-36.39383428 18.8744488 -33.45483717 20.00180505 -30.50683594 21.37475586 C-23.38348064 24.76960613 -23.38348064 24.76960613 -15.75 23.9375 C-14.48283986 23.32602156 -13.22953221 22.68399652 -12 22 C-11.01 21.67 -10.02 21.34 -9 21 C-7.7457334 18.90599527 -7.7457334 18.90599527 -6.73828125 16.30859375 C-6.38032471 15.45837646 -6.02236816 14.60815918 -5.65356445 13.73217773 C-4.98973755 12.10131226 -4.98973755 12.10131226 -4.3125 10.4375 C-2.889375 6.993125 -1.46625 3.54875 0 0 Z " fill="#05557F" transform="translate(76,227)"/>
<path d="M0 0 C4.62 0 9.24 0 14 0 C15.23697917 2.50651042 16.47395833 5.01302083 17.7109375 7.51953125 C19.01866905 10.14556381 19.01866905 10.14556381 21 13 C26.88259983 13.58825998 29.72770286 12.69472965 35 10 C38.07274107 9.84242353 39.48723155 10.60621067 41.90234375 12.4609375 C43.82992714 14.20912204 45.47752316 15.8891914 47 18 C47.07246529 21.043542 46.1663035 22.62826277 44.9375 25.375 C43.72862369 28.75985367 43.66961481 31.43183994 44 35 C46.20779907 37.84993671 48.97961558 39.14604904 52.1875 40.6875 C54.5696875 41.8321875 54.5696875 41.8321875 57 43 C57 47.62 57 52.24 57 57 C54.20052083 58.23697917 51.40104167 59.47395833 48.6015625 60.7109375 C45.91977521 61.86712444 45.91977521 61.86712444 44 64 C43.61952799 68.48956976 43.63755257 71.66169422 45.5625 75.75 C47 79 47 79 46.8125 80.96875 C45.7938508 83.51537301 44.42420753 84.87165834 42.4375 86.75 C41.79683594 87.36359375 41.15617187 87.9771875 40.49609375 88.609375 C40.00238281 89.06828125 39.50867188 89.5271875 39 90 C38.3709375 89.7834375 37.741875 89.566875 37.09375 89.34375 C29.17435626 86.7337033 29.17435626 86.7337033 21 87 C17.47001848 90.71860649 15.88228337 95.29429158 14 100 C9.38 100 4.76 100 0 100 C-4 90.25 -4 90.25 -4 88 C-11.18971032 85.60342989 -17.19125322 87.35215403 -24 90 C-26.89440241 87.50460711 -29.6109637 84.99035836 -32 82 C-32.125 78.875 -32.125 78.875 -31 76 C-29.33743229 71.20789309 -28.24074687 67.73331126 -29.625 62.75 C-31.67216934 60.14451175 -33.78301307 60.43305593 -37 60 C-38.98 59.01 -40.96 58.02 -43 57 C-43 52.38 -43 47.76 -43 43 C-39.94010417 41.50260417 -36.88020833 40.00520833 -33.8203125 38.5078125 C-30.96117453 37.15464063 -30.96117453 37.15464063 -29 35 C-28.58802551 30.7978602 -28.87998814 28.27842751 -30.5625 24.375 C-32 21 -32 21 -32.0625 18.4375 C-30.48406244 14.81637854 -28.31784021 12.17588591 -25 10 C-21.68185377 10 -19.57828212 10.74792831 -16.5625 12.0625 C-13.13236645 13.31742691 -10.62314914 13.46112807 -7 13 C-3.01105525 9.45427133 -1.67252621 4.93395232 0 0 Z " fill="#04547F" transform="translate(191,337)"/>
<path d="M0 0 C9.6696184 7.1258402 16.10630375 15.53624124 18.50390625 27.45703125 C19.53086986 39.578569 17.39771318 50.04704204 9.4453125 59.4765625 C6.43939893 62.54295722 3.21618885 65.28086559 -0.49609375 67.45703125 C-1.15609375 67.45703125 -1.81609375 67.45703125 -2.49609375 67.45703125 C-2.49609375 68.11703125 -2.49609375 68.77703125 -2.49609375 69.45703125 C-12.61001554 73.82499747 -26.75574118 74.69599523 -37.18359375 70.83203125 C-39.4375 69.703125 -39.4375 69.703125 -41.49609375 68.45703125 C-42.18574219 68.05613281 -42.87539062 67.65523438 -43.5859375 67.2421875 C-53.72224705 60.53004394 -59.07841317 50.10447355 -61.49609375 38.45703125 C-62.97646457 28.9622391 -59.42295297 18.65729798 -54.28515625 10.7734375 C-41.31201083 -6.02367 -18.47124855 -11.41806444 0 0 Z " fill="#FBFDFD" transform="translate(108.49609375,278.54296875)"/>
<path d="M0 0 C19.14 0 38.28 0 58 0 C58 19.14 58 38.28 58 58 C38.86 58 19.72 58 0 58 C0 38.86 0 19.72 0 0 Z " fill="#03547F" transform="translate(189,58)"/>
<path d="M0 0 C15.51 0 31.02 0 47 0 C47 15.51 47 31.02 47 47 C31.49 47 15.98 47 0 47 C0 31.49 0 15.98 0 0 Z " fill="#065580" transform="translate(266,123)"/>
<path d="M0 0 C13.2 0 26.4 0 40 0 C40.020625 6.414375 40.04125 12.82875 40.0625 19.4375 C40.071604 21.46447021 40.08070801 23.49144043 40.09008789 25.57983398 C40.09300703 27.1769199 40.09555559 28.77400655 40.09765625 30.37109375 C40.10277222 31.20805786 40.10788818 32.04502197 40.11315918 32.90734863 C40.11346924 34.93858265 40.06240188 36.96972471 40 39 C39 40 39 40 35.30639648 40.11352539 C33.66128709 40.11327427 32.01617243 40.10771184 30.37109375 40.09765625 C29.22259949 40.09614563 29.22259949 40.09614563 28.05090332 40.09460449 C25.17975373 40.08935663 22.30862542 40.07539547 19.4375 40.0625 C13.023125 40.041875 6.60875 40.02125 0 40 C0 26.8 0 13.6 0 0 Z " fill="#0C5982" transform="translate(274,51)"/>
<path d="M0 0 C10.89 0 21.78 0 33 0 C33 10.56 33 21.12 33 32 C22.11 32 11.22 32 0 32 C0 21.44 0 10.88 0 0 Z " fill="#FDFEFD" transform="translate(191,151)"/>
<path d="M0 0 C10.56 0 21.12 0 32 0 C32 9.24 32 18.48 32 28 C21.44 28 10.88 28 0 28 C0 18.76 0 9.52 0 0 Z " fill="#08557F" transform="translate(227,12)"/>
<path d="M0 0 C35.97 0 71.94 0 109 0 C109 25.74 109 51.48 109 78 C133.75 78 158.5 78 184 78 C184 96.48 184 114.96 184 134 C183.67 134 183.34 134 183 134 C183 116.18 183 98.36 183 80 C158.25 80 133.5 80 108 80 C108 53.93 108 27.86 108 1 C103.545 1.495 103.545 1.495 99 2 C97.41297852 2.07446837 95.82398056 2.12232592 94.23521423 2.12025452 C93.40835334 2.12163201 92.58149244 2.12300951 91.72957516 2.12442875 C90.41505289 2.11903159 90.41505289 2.11903159 89.07397461 2.11352539 C88.11140779 2.11364593 87.14884096 2.11376646 86.15710545 2.11389065 C83.07216054 2.11315022 79.9872777 2.105562 76.90234375 2.09765625 C74.98539255 2.09618413 73.06844094 2.09516508 71.15148926 2.09460449 C64.08015334 2.08938288 57.00882604 2.07542162 49.9375 2.0625 C34.118125 2.041875 18.29875 2.02125 2 2 C2 52.49 2 102.98 2 155 C17.84 155 33.68 155 50 155 C50 155.33 50 155.66 50 156 C33.5 156 17 156 0 156 C0 104.52 0 53.04 0 0 Z " fill="#58A8C6" transform="translate(57,58)"/>
<path d="M0 0 C0.33 0 0.66 0 1 0 C1 18.15 1 36.3 1 55 C19.81 55 38.62 55 58 55 C58 48.4 58 41.8 58 35 C47.44 35 36.88 35 26 35 C26 34.67 26 34.34 26 34 C41.18 34 56.36 34 72 34 C72 34.33 72 34.66 72 35 C68.37 35 64.74 35 61 35 C61.00092179 36.05559333 61.00184359 37.11118666 61.00279331 38.19876766 C61.02495981 63.84391988 61.04141002 89.48907085 61.05181217 115.13423061 C61.05697584 127.53586097 61.06401989 139.93748502 61.07543945 152.33911133 C61.08538412 163.14412616 61.09185291 173.94913642 61.09408849 184.7541557 C61.09539597 190.4791448 61.09848415 196.20412083 61.10573006 201.92910576 C61.11248685 207.31094088 61.11461766 212.69275745 61.11310768 218.07459641 C61.11338416 220.05601032 61.11539129 222.03742481 61.11920547 224.01883507 C61.12413741 226.71163087 61.12300015 229.40435546 61.12025452 232.09715271 C61.12316736 232.89188427 61.1260802 233.68661583 61.12908131 234.50543016 C61.11412121 239.88587879 61.11412121 239.88587879 60 241 C58.55710213 241.09295815 57.10970215 241.11746513 55.66381836 241.11352539 C54.28249977 241.11341209 54.28249977 241.11341209 52.87327576 241.11329651 C51.87224319 241.10813522 50.87121063 241.10297394 49.83984375 241.09765625 C48.82024063 241.0962413 47.80063751 241.09482635 46.75013733 241.09336853 C43.47922893 241.08775097 40.20838787 241.0751955 36.9375 241.0625 C34.72591244 241.05748726 32.51432382 241.05292396 30.30273438 241.04882812 C24.86846643 241.03777584 19.43423803 241.02102063 14 241 C14 240.34 14 239.68 14 239 C28.85 239 43.7 239 59 239 C59 178.94 59 118.88 59 57 C39.53 57 20.06 57 0 57 C0 38.19 0 19.38 0 0 Z " fill="#C3E9F1" transform="translate(241,136)"/>
<path d="M0 0 C3.13180809 1.62390049 5.24339744 3.00266026 7.375 5.8125 C8.7205825 10.52203875 8.57570135 13.89124184 6.3125 18.25 C2.95027196 22.24832524 0.71795145 23.78525607 -4.5 24.4375 C-8.55657246 23.93042844 -10.17959285 22.90587403 -13 20 C-13 19.34 -13 18.68 -13 18 C-13.66 18 -14.32 18 -15 18 C-16.23534045 14.29397865 -16.45528745 11.90246386 -16 8 C-11.84292331 1.52775137 -7.85335743 -1.06560426 0 0 Z " fill="#EEF5F7" transform="translate(202,375)"/>
<path d="M0 0 C10.89 0 21.78 0 33 0 C33 10.56 33 21.12 33 32 C22.11 32 11.22 32 0 32 C0 21.44 0 10.88 0 0 Z M2 1 C2 10.9 2 20.8 2 31 C11.57 31 21.14 31 31 31 C31 21.43 31 11.86 31 2 C21.43 1.67 11.86 1.34 2 1 Z " fill="#C9EBF2" transform="translate(191,151)"/>
<path d="M0 0 C2.475 0.495 2.475 0.495 5 1 C5 10.57 5 20.14 5 30 C8.96 30 12.92 30 17 30 C18.32 30.66 19.64 31.32 21 32 C15.06 32 9.12 32 3 32 C3 21.77 3 11.54 3 1 C2.01 0.67 1.02 0.34 0 0 Z " fill="#65B0CA" transform="translate(182,292)"/>
<path d="M0 0 C0.66 0.33 1.32 0.66 2 1 C1.071875 1.598125 0.14375 2.19625 -0.8125 2.8125 C-5.56766702 6.03168022 -5.56766702 6.03168022 -8 11 C-8.66 11 -9.32 11 -10 11 C-8.65112263 4.50086356 -8.65112263 4.50086356 -5.5625 2.125 C-3 1 -3 1 0 0 Z " fill="#C1DBE3" transform="translate(114,373)"/>
<path d="M0 0 C0.33 0.66 0.66 1.32 1 2 C-4.94 2.495 -4.94 2.495 -11 3 C-10 1 -10 1 -7.75 -0.1875 C-4.66797534 -1.0980982 -3.02755386 -1.00918462 0 0 Z " fill="#457B95" transform="translate(231,348)"/>
</svg>
